<mxfile host="65bd71144e">
    <diagram id="C5RBs43oDa-KdzZeNtuy" name="Flow">
        <mxGraphModel dx="1668" dy="822" grid="1" gridSize="10" guides="1" tooltips="1" connect="1" arrows="1" fold="1" page="1" pageScale="1" pageWidth="827" pageHeight="1169" background="none" math="0" shadow="0">
            <root>
                <object label="" id="WIyWlLk6GJQsqaUBKTNV-0">
                    <mxCell/>
                </object>
                <mxCell id="WIyWlLk6GJQsqaUBKTNV-1" parent="WIyWlLk6GJQsqaUBKTNV-0"/>
                <mxCell id="PwTWBdAlO1dSS5UbrFO7-28" value="" style="edgeStyle=orthogonalEdgeStyle;orthogonalLoop=1;jettySize=auto;html=1;fontSize=11;fontColor=#000000;" parent="WIyWlLk6GJQsqaUBKTNV-1" source="PwTWBdAlO1dSS5UbrFO7-1" target="PwTWBdAlO1dSS5UbrFO7-27" edge="1">
                    <mxGeometry relative="1" as="geometry"/>
                </mxCell>
                <mxCell id="PwTWBdAlO1dSS5UbrFO7-1" value="Page Load" style="strokeWidth=2;html=1;shape=mxgraph.flowchart.terminator;whiteSpace=wrap;fontSize=11;fillColor=#dae8fc;strokeColor=#6c8ebf;fontStyle=0;rounded=1;fontColor=#000000;" parent="WIyWlLk6GJQsqaUBKTNV-1" vertex="1">
                    <mxGeometry x="40" y="80" width="80" height="40" as="geometry"/>
                </mxCell>
                <mxCell id="PwTWBdAlO1dSS5UbrFO7-5" value="" style="edgeStyle=orthogonalEdgeStyle;orthogonalLoop=1;jettySize=auto;html=1;fontColor=#000000;" parent="WIyWlLk6GJQsqaUBKTNV-1" source="PwTWBdAlO1dSS5UbrFO7-2" target="PwTWBdAlO1dSS5UbrFO7-4" edge="1">
                    <mxGeometry relative="1" as="geometry"/>
                </mxCell>
                <mxCell id="PwTWBdAlO1dSS5UbrFO7-2" value="Fetch all List data" style="whiteSpace=wrap;html=1;absoluteArcSize=1;arcSize=14;strokeWidth=2;fontSize=11;fillColor=#d5e8d4;strokeColor=#82b366;rounded=1;fontColor=#000000;" parent="WIyWlLk6GJQsqaUBKTNV-1" vertex="1">
                    <mxGeometry x="320" y="80" width="120" height="40" as="geometry"/>
                </mxCell>
                <mxCell id="PwTWBdAlO1dSS5UbrFO7-309" value="" style="edgeStyle=orthogonalEdgeStyle;orthogonalLoop=1;jettySize=auto;html=1;fontSize=11;fontColor=#000000;" parent="WIyWlLk6GJQsqaUBKTNV-1" source="PwTWBdAlO1dSS5UbrFO7-4" target="PwTWBdAlO1dSS5UbrFO7-308" edge="1">
                    <mxGeometry relative="1" as="geometry"/>
                </mxCell>
                <mxCell id="PwTWBdAlO1dSS5UbrFO7-4" value="Render Data" style="whiteSpace=wrap;html=1;absoluteArcSize=1;arcSize=14;strokeWidth=2;fontSize=11;fillColor=#e1d5e7;strokeColor=#9673a6;rounded=1;fontColor=#000000;" parent="WIyWlLk6GJQsqaUBKTNV-1" vertex="1">
                    <mxGeometry x="480" y="80" width="120" height="40" as="geometry"/>
                </mxCell>
                <mxCell id="PwTWBdAlO1dSS5UbrFO7-10" value="" style="edgeStyle=orthogonalEdgeStyle;orthogonalLoop=1;jettySize=auto;html=1;fontSize=11;fontColor=#000000;" parent="WIyWlLk6GJQsqaUBKTNV-1" source="PwTWBdAlO1dSS5UbrFO7-6" target="PwTWBdAlO1dSS5UbrFO7-9" edge="1">
                    <mxGeometry relative="1" as="geometry"/>
                </mxCell>
                <mxCell id="PwTWBdAlO1dSS5UbrFO7-6" value="&lt;b&gt;btn &lt;/b&gt;addList" style="strokeWidth=2;html=1;shape=mxgraph.flowchart.terminator;whiteSpace=wrap;fontSize=11;fillColor=#ffe6cc;strokeColor=#d79b00;rounded=1;fontColor=#000000;" parent="WIyWlLk6GJQsqaUBKTNV-1" vertex="1">
                    <mxGeometry x="40" y="220" width="80" height="40" as="geometry"/>
                </mxCell>
                <mxCell id="PwTWBdAlO1dSS5UbrFO7-12" value="" style="edgeStyle=orthogonalEdgeStyle;orthogonalLoop=1;jettySize=auto;html=1;fontSize=11;entryX=0;entryY=0.5;entryDx=0;entryDy=0;entryPerimeter=0;fontColor=#000000;" parent="WIyWlLk6GJQsqaUBKTNV-1" source="PwTWBdAlO1dSS5UbrFO7-9" target="PwTWBdAlO1dSS5UbrFO7-13" edge="1">
                    <mxGeometry relative="1" as="geometry">
                        <mxPoint x="250" y="410" as="targetPoint"/>
                    </mxGeometry>
                </mxCell>
                <mxCell id="PwTWBdAlO1dSS5UbrFO7-9" value="Show modal form" style="whiteSpace=wrap;html=1;absoluteArcSize=1;arcSize=14;strokeWidth=2;fontSize=11;fillColor=#e1d5e7;strokeColor=#9673a6;rounded=1;fontColor=#000000;" parent="WIyWlLk6GJQsqaUBKTNV-1" vertex="1">
                    <mxGeometry x="160" y="220" width="120" height="40" as="geometry"/>
                </mxCell>
                <mxCell id="PwTWBdAlO1dSS5UbrFO7-16" value="" style="edgeStyle=orthogonalEdgeStyle;orthogonalLoop=1;jettySize=auto;html=1;fontSize=11;fontColor=#000000;" parent="WIyWlLk6GJQsqaUBKTNV-1" source="PwTWBdAlO1dSS5UbrFO7-13" target="PwTWBdAlO1dSS5UbrFO7-14" edge="1">
                    <mxGeometry relative="1" as="geometry"/>
                </mxCell>
                <mxCell id="PwTWBdAlO1dSS5UbrFO7-327" style="edgeStyle=orthogonalEdgeStyle;orthogonalLoop=1;jettySize=auto;html=1;exitX=0.5;exitY=1;exitDx=0;exitDy=0;exitPerimeter=0;entryX=0.5;entryY=0;entryDx=0;entryDy=0;fontSize=11;fontColor=#000000;" parent="WIyWlLk6GJQsqaUBKTNV-1" source="PwTWBdAlO1dSS5UbrFO7-13" target="PwTWBdAlO1dSS5UbrFO7-33" edge="1">
                    <mxGeometry relative="1" as="geometry"/>
                </mxCell>
                <mxCell id="PwTWBdAlO1dSS5UbrFO7-13" value="User &lt;br&gt;Responds" style="strokeWidth=2;html=1;shape=mxgraph.flowchart.decision;whiteSpace=wrap;fontSize=11;fillColor=#f8cecc;strokeColor=#b85450;rounded=1;fontColor=#000000;" parent="WIyWlLk6GJQsqaUBKTNV-1" vertex="1">
                    <mxGeometry x="340" y="200" width="80" height="80" as="geometry"/>
                </mxCell>
                <mxCell id="PwTWBdAlO1dSS5UbrFO7-14" value="Close Modal Form" style="whiteSpace=wrap;html=1;absoluteArcSize=1;arcSize=14;strokeWidth=2;fontSize=11;fillColor=#e1d5e7;strokeColor=#9673a6;rounded=1;fontColor=#000000;" parent="WIyWlLk6GJQsqaUBKTNV-1" vertex="1">
                    <mxGeometry x="480" y="220" width="120" height="40" as="geometry"/>
                </mxCell>
                <mxCell id="PwTWBdAlO1dSS5UbrFO7-36" value="" style="edgeStyle=orthogonalEdgeStyle;orthogonalLoop=1;jettySize=auto;html=1;fontSize=11;fontColor=#000000;" parent="WIyWlLk6GJQsqaUBKTNV-1" source="PwTWBdAlO1dSS5UbrFO7-15" target="PwTWBdAlO1dSS5UbrFO7-20" edge="1">
                    <mxGeometry relative="1" as="geometry"/>
                </mxCell>
                <mxCell id="PwTWBdAlO1dSS5UbrFO7-15" value="Grab List name from Modal form" style="whiteSpace=wrap;html=1;absoluteArcSize=1;arcSize=14;strokeWidth=2;fontSize=11;fillColor=#d5e8d4;strokeColor=#82b366;rounded=1;fontColor=#000000;" parent="WIyWlLk6GJQsqaUBKTNV-1" vertex="1">
                    <mxGeometry x="320" y="380" width="120" height="40" as="geometry"/>
                </mxCell>
                <mxCell id="PwTWBdAlO1dSS5UbrFO7-17" value="Cancel" style="text;html=1;align=center;verticalAlign=middle;resizable=0;points=[];autosize=1;strokeColor=none;fillColor=none;fontSize=11;rounded=1;" parent="WIyWlLk6GJQsqaUBKTNV-1" vertex="1">
                    <mxGeometry x="414" y="220" width="50" height="20" as="geometry"/>
                </mxCell>
                <mxCell id="PwTWBdAlO1dSS5UbrFO7-19" value="Add" style="text;html=1;align=center;verticalAlign=middle;resizable=0;points=[];autosize=1;strokeColor=none;fillColor=none;fontSize=11;rounded=1;" parent="WIyWlLk6GJQsqaUBKTNV-1" vertex="1">
                    <mxGeometry x="390" y="280" width="30" height="20" as="geometry"/>
                </mxCell>
                <mxCell id="PwTWBdAlO1dSS5UbrFO7-25" value="" style="edgeStyle=orthogonalEdgeStyle;orthogonalLoop=1;jettySize=auto;html=1;fontSize=11;fontColor=#000000;" parent="WIyWlLk6GJQsqaUBKTNV-1" source="PwTWBdAlO1dSS5UbrFO7-20" target="PwTWBdAlO1dSS5UbrFO7-24" edge="1">
                    <mxGeometry relative="1" as="geometry"/>
                </mxCell>
                <mxCell id="PwTWBdAlO1dSS5UbrFO7-20" value="Reset Modal Form" style="whiteSpace=wrap;html=1;absoluteArcSize=1;arcSize=14;strokeWidth=2;fontSize=11;fillColor=#d5e8d4;strokeColor=#82b366;rounded=1;fontColor=#000000;" parent="WIyWlLk6GJQsqaUBKTNV-1" vertex="1">
                    <mxGeometry x="320" y="450" width="120" height="40" as="geometry"/>
                </mxCell>
                <mxCell id="PwTWBdAlO1dSS5UbrFO7-32" style="edgeStyle=orthogonalEdgeStyle;orthogonalLoop=1;jettySize=auto;html=1;exitX=1;exitY=0.5;exitDx=0;exitDy=0;entryX=0.5;entryY=0;entryDx=0;entryDy=0;fontSize=11;fontColor=#000000;rounded=0;" parent="WIyWlLk6GJQsqaUBKTNV-1" source="PwTWBdAlO1dSS5UbrFO7-24" target="PwTWBdAlO1dSS5UbrFO7-27" edge="1">
                    <mxGeometry relative="1" as="geometry">
                        <Array as="points">
                            <mxPoint x="640" y="470"/>
                            <mxPoint x="640" y="40"/>
                            <mxPoint x="220" y="40"/>
                        </Array>
                    </mxGeometry>
                </mxCell>
                <mxCell id="PwTWBdAlO1dSS5UbrFO7-24" value="Push new List to&lt;br&gt;Task List" style="whiteSpace=wrap;html=1;absoluteArcSize=1;arcSize=14;strokeWidth=2;fontSize=11;fillColor=#d5e8d4;strokeColor=#82b366;rounded=1;fontColor=#000000;" parent="WIyWlLk6GJQsqaUBKTNV-1" vertex="1">
                    <mxGeometry x="480" y="450" width="120" height="40" as="geometry"/>
                </mxCell>
                <mxCell id="PwTWBdAlO1dSS5UbrFO7-29" value="" style="edgeStyle=orthogonalEdgeStyle;orthogonalLoop=1;jettySize=auto;html=1;fontSize=11;fontColor=#000000;" parent="WIyWlLk6GJQsqaUBKTNV-1" source="PwTWBdAlO1dSS5UbrFO7-27" target="PwTWBdAlO1dSS5UbrFO7-2" edge="1">
                    <mxGeometry relative="1" as="geometry"/>
                </mxCell>
                <mxCell id="PwTWBdAlO1dSS5UbrFO7-27" value="&lt;b&gt;fn&lt;/b&gt; renderUI()" style="whiteSpace=wrap;html=1;absoluteArcSize=1;arcSize=14;strokeWidth=2;fontSize=11;fillColor=#d5e8d4;strokeColor=#82b366;rounded=1;fontColor=#000000;" parent="WIyWlLk6GJQsqaUBKTNV-1" vertex="1">
                    <mxGeometry x="160" y="80" width="120" height="40" as="geometry"/>
                </mxCell>
                <mxCell id="PwTWBdAlO1dSS5UbrFO7-35" value="" style="edgeStyle=orthogonalEdgeStyle;orthogonalLoop=1;jettySize=auto;html=1;fontSize=11;fontColor=#000000;" parent="WIyWlLk6GJQsqaUBKTNV-1" source="PwTWBdAlO1dSS5UbrFO7-33" target="PwTWBdAlO1dSS5UbrFO7-15" edge="1">
                    <mxGeometry relative="1" as="geometry"/>
                </mxCell>
                <mxCell id="PwTWBdAlO1dSS5UbrFO7-33" value="Close Modal Form" style="whiteSpace=wrap;html=1;absoluteArcSize=1;arcSize=14;strokeWidth=2;fontSize=11;fillColor=#e1d5e7;strokeColor=#9673a6;rounded=1;fontColor=#000000;" parent="WIyWlLk6GJQsqaUBKTNV-1" vertex="1">
                    <mxGeometry x="320" y="310" width="120" height="40" as="geometry"/>
                </mxCell>
                <mxCell id="PwTWBdAlO1dSS5UbrFO7-269" value="" style="edgeStyle=orthogonalEdgeStyle;orthogonalLoop=1;jettySize=auto;html=1;fontSize=11;fontColor=#000000;" parent="WIyWlLk6GJQsqaUBKTNV-1" source="PwTWBdAlO1dSS5UbrFO7-270" target="PwTWBdAlO1dSS5UbrFO7-272" edge="1">
                    <mxGeometry relative="1" as="geometry"/>
                </mxCell>
                <mxCell id="PwTWBdAlO1dSS5UbrFO7-270" value="&lt;b&gt;btn &lt;/b&gt;deleteList" style="strokeWidth=2;html=1;shape=mxgraph.flowchart.terminator;whiteSpace=wrap;fontSize=11;fillColor=#ffe6cc;strokeColor=#d79b00;rounded=1;fontColor=#000000;" parent="WIyWlLk6GJQsqaUBKTNV-1" vertex="1">
                    <mxGeometry x="40" y="540" width="80" height="40" as="geometry"/>
                </mxCell>
                <mxCell id="PwTWBdAlO1dSS5UbrFO7-271" value="" style="edgeStyle=orthogonalEdgeStyle;orthogonalLoop=1;jettySize=auto;html=1;fontSize=11;entryX=0;entryY=0.5;entryDx=0;entryDy=0;entryPerimeter=0;fontColor=#000000;" parent="WIyWlLk6GJQsqaUBKTNV-1" source="PwTWBdAlO1dSS5UbrFO7-272" target="PwTWBdAlO1dSS5UbrFO7-274" edge="1">
                    <mxGeometry relative="1" as="geometry">
                        <mxPoint x="250" y="730" as="targetPoint"/>
                    </mxGeometry>
                </mxCell>
                <mxCell id="PwTWBdAlO1dSS5UbrFO7-272" value="Show modal form" style="whiteSpace=wrap;html=1;absoluteArcSize=1;arcSize=14;strokeWidth=2;fontSize=11;fillColor=#e1d5e7;strokeColor=#9673a6;rounded=1;fontColor=#000000;" parent="WIyWlLk6GJQsqaUBKTNV-1" vertex="1">
                    <mxGeometry x="160" y="540" width="120" height="40" as="geometry"/>
                </mxCell>
                <mxCell id="PwTWBdAlO1dSS5UbrFO7-273" value="" style="edgeStyle=orthogonalEdgeStyle;orthogonalLoop=1;jettySize=auto;html=1;fontSize=11;fontColor=#000000;" parent="WIyWlLk6GJQsqaUBKTNV-1" source="PwTWBdAlO1dSS5UbrFO7-274" target="PwTWBdAlO1dSS5UbrFO7-275" edge="1">
                    <mxGeometry relative="1" as="geometry"/>
                </mxCell>
                <mxCell id="PwTWBdAlO1dSS5UbrFO7-322" style="edgeStyle=orthogonalEdgeStyle;orthogonalLoop=1;jettySize=auto;html=1;exitX=0.5;exitY=1;exitDx=0;exitDy=0;exitPerimeter=0;entryX=0.5;entryY=0;entryDx=0;entryDy=0;fontSize=11;fontColor=#000000;" parent="WIyWlLk6GJQsqaUBKTNV-1" source="PwTWBdAlO1dSS5UbrFO7-274" target="PwTWBdAlO1dSS5UbrFO7-278" edge="1">
                    <mxGeometry relative="1" as="geometry"/>
                </mxCell>
                <mxCell id="PwTWBdAlO1dSS5UbrFO7-274" value="User &lt;br&gt;Responds" style="strokeWidth=2;html=1;shape=mxgraph.flowchart.decision;whiteSpace=wrap;fontSize=11;fillColor=#f8cecc;strokeColor=#b85450;rounded=1;fontColor=#000000;" parent="WIyWlLk6GJQsqaUBKTNV-1" vertex="1">
                    <mxGeometry x="340" y="520" width="80" height="80" as="geometry"/>
                </mxCell>
                <mxCell id="PwTWBdAlO1dSS5UbrFO7-275" value="Close Modal Form" style="whiteSpace=wrap;html=1;absoluteArcSize=1;arcSize=14;strokeWidth=2;fontSize=11;fillColor=#e1d5e7;strokeColor=#9673a6;rounded=1;fontColor=#000000;" parent="WIyWlLk6GJQsqaUBKTNV-1" vertex="1">
                    <mxGeometry x="480" y="540" width="120" height="40" as="geometry"/>
                </mxCell>
                <mxCell id="PwTWBdAlO1dSS5UbrFO7-276" value="Cancel" style="text;html=1;align=center;verticalAlign=middle;resizable=0;points=[];autosize=1;strokeColor=none;fillColor=none;fontSize=11;rounded=1;" parent="WIyWlLk6GJQsqaUBKTNV-1" vertex="1">
                    <mxGeometry x="414" y="540" width="50" height="20" as="geometry"/>
                </mxCell>
                <mxCell id="PwTWBdAlO1dSS5UbrFO7-277" value="Yes" style="text;html=1;align=center;verticalAlign=middle;resizable=0;points=[];autosize=1;strokeColor=none;fillColor=none;fontSize=11;rounded=1;" parent="WIyWlLk6GJQsqaUBKTNV-1" vertex="1">
                    <mxGeometry x="384" y="600" width="30" height="20" as="geometry"/>
                </mxCell>
                <mxCell id="PwTWBdAlO1dSS5UbrFO7-325" style="edgeStyle=orthogonalEdgeStyle;orthogonalLoop=1;jettySize=auto;html=1;exitX=0.5;exitY=1;exitDx=0;exitDy=0;entryX=0.5;entryY=0;entryDx=0;entryDy=0;fontSize=11;fontColor=#000000;" parent="WIyWlLk6GJQsqaUBKTNV-1" source="PwTWBdAlO1dSS5UbrFO7-278" target="PwTWBdAlO1dSS5UbrFO7-280" edge="1">
                    <mxGeometry relative="1" as="geometry"/>
                </mxCell>
                <mxCell id="PwTWBdAlO1dSS5UbrFO7-278" value="Close Modal Form" style="whiteSpace=wrap;html=1;absoluteArcSize=1;arcSize=14;strokeWidth=2;fontSize=11;fillColor=#e1d5e7;strokeColor=#9673a6;rounded=1;fontColor=#000000;" parent="WIyWlLk6GJQsqaUBKTNV-1" vertex="1">
                    <mxGeometry x="320" y="630" width="120" height="40" as="geometry"/>
                </mxCell>
                <mxCell id="PwTWBdAlO1dSS5UbrFO7-284" value="" style="edgeStyle=orthogonalEdgeStyle;orthogonalLoop=1;jettySize=auto;html=1;fontSize=11;fontColor=#000000;" parent="WIyWlLk6GJQsqaUBKTNV-1" source="PwTWBdAlO1dSS5UbrFO7-280" target="PwTWBdAlO1dSS5UbrFO7-281" edge="1">
                    <mxGeometry relative="1" as="geometry"/>
                </mxCell>
                <mxCell id="PwTWBdAlO1dSS5UbrFO7-280" value="Grab List ID from DOM" style="whiteSpace=wrap;html=1;absoluteArcSize=1;arcSize=14;strokeWidth=2;fontSize=11;fillColor=#d5e8d4;strokeColor=#82b366;rounded=1;fontColor=#000000;" parent="WIyWlLk6GJQsqaUBKTNV-1" vertex="1">
                    <mxGeometry x="320" y="700" width="120" height="40" as="geometry"/>
                </mxCell>
                <mxCell id="PwTWBdAlO1dSS5UbrFO7-285" style="edgeStyle=orthogonalEdgeStyle;orthogonalLoop=1;jettySize=auto;html=1;exitX=1;exitY=0.5;exitDx=0;exitDy=0;fontSize=11;fontColor=#000000;rounded=0;" parent="WIyWlLk6GJQsqaUBKTNV-1" source="PwTWBdAlO1dSS5UbrFO7-281" edge="1">
                    <mxGeometry relative="1" as="geometry">
                        <mxPoint x="640" y="470" as="targetPoint"/>
                    </mxGeometry>
                </mxCell>
                <mxCell id="PwTWBdAlO1dSS5UbrFO7-281" value="Find and Remove the List from Task List" style="whiteSpace=wrap;html=1;absoluteArcSize=1;arcSize=14;strokeWidth=2;fontSize=11;fillColor=#d5e8d4;strokeColor=#82b366;rounded=1;fontColor=#000000;" parent="WIyWlLk6GJQsqaUBKTNV-1" vertex="1">
                    <mxGeometry x="480" y="700" width="120" height="40" as="geometry"/>
                </mxCell>
                <mxCell id="PwTWBdAlO1dSS5UbrFO7-286" value="" style="edgeStyle=orthogonalEdgeStyle;orthogonalLoop=1;jettySize=auto;html=1;fontSize=11;fontColor=#000000;" parent="WIyWlLk6GJQsqaUBKTNV-1" source="PwTWBdAlO1dSS5UbrFO7-287" target="PwTWBdAlO1dSS5UbrFO7-288" edge="1">
                    <mxGeometry relative="1" as="geometry"/>
                </mxCell>
                <mxCell id="PwTWBdAlO1dSS5UbrFO7-287" value="&lt;b&gt;btn &lt;/b&gt;addTask" style="strokeWidth=2;html=1;shape=mxgraph.flowchart.terminator;whiteSpace=wrap;fontSize=11;fillColor=#ffe6cc;strokeColor=#d79b00;rounded=1;fontColor=#000000;" parent="WIyWlLk6GJQsqaUBKTNV-1" vertex="1">
                    <mxGeometry x="40" y="780" width="80" height="40" as="geometry"/>
                </mxCell>
                <mxCell id="PwTWBdAlO1dSS5UbrFO7-302" value="" style="edgeStyle=orthogonalEdgeStyle;orthogonalLoop=1;jettySize=auto;html=1;fontSize=11;fontColor=#000000;" parent="WIyWlLk6GJQsqaUBKTNV-1" source="PwTWBdAlO1dSS5UbrFO7-288" target="PwTWBdAlO1dSS5UbrFO7-290" edge="1">
                    <mxGeometry relative="1" as="geometry"/>
                </mxCell>
                <mxCell id="PwTWBdAlO1dSS5UbrFO7-288" value="Show modal form" style="whiteSpace=wrap;html=1;absoluteArcSize=1;arcSize=14;strokeWidth=2;fontSize=11;fillColor=#e1d5e7;strokeColor=#9673a6;rounded=1;fontColor=#000000;" parent="WIyWlLk6GJQsqaUBKTNV-1" vertex="1">
                    <mxGeometry x="160" y="780" width="120" height="40" as="geometry"/>
                </mxCell>
                <mxCell id="PwTWBdAlO1dSS5UbrFO7-289" value="" style="edgeStyle=orthogonalEdgeStyle;orthogonalLoop=1;jettySize=auto;html=1;fontSize=11;fontColor=#000000;" parent="WIyWlLk6GJQsqaUBKTNV-1" source="PwTWBdAlO1dSS5UbrFO7-290" target="PwTWBdAlO1dSS5UbrFO7-291" edge="1">
                    <mxGeometry relative="1" as="geometry"/>
                </mxCell>
                <mxCell id="PwTWBdAlO1dSS5UbrFO7-323" style="edgeStyle=orthogonalEdgeStyle;orthogonalLoop=1;jettySize=auto;html=1;exitX=0.5;exitY=1;exitDx=0;exitDy=0;exitPerimeter=0;entryX=0.5;entryY=0;entryDx=0;entryDy=0;fontSize=11;fontColor=#000000;" parent="WIyWlLk6GJQsqaUBKTNV-1" source="PwTWBdAlO1dSS5UbrFO7-290" target="PwTWBdAlO1dSS5UbrFO7-300" edge="1">
                    <mxGeometry relative="1" as="geometry"/>
                </mxCell>
                <mxCell id="PwTWBdAlO1dSS5UbrFO7-290" value="User &lt;br&gt;Responds" style="strokeWidth=2;html=1;shape=mxgraph.flowchart.decision;whiteSpace=wrap;fontSize=11;fillColor=#f8cecc;strokeColor=#b85450;rounded=1;fontColor=#000000;" parent="WIyWlLk6GJQsqaUBKTNV-1" vertex="1">
                    <mxGeometry x="340" y="760" width="80" height="80" as="geometry"/>
                </mxCell>
                <mxCell id="PwTWBdAlO1dSS5UbrFO7-318" value="" style="edgeStyle=orthogonalEdgeStyle;orthogonalLoop=1;jettySize=auto;html=1;fontSize=11;fontColor=#000000;" parent="WIyWlLk6GJQsqaUBKTNV-1" source="PwTWBdAlO1dSS5UbrFO7-291" target="PwTWBdAlO1dSS5UbrFO7-317" edge="1">
                    <mxGeometry relative="1" as="geometry"/>
                </mxCell>
                <mxCell id="PwTWBdAlO1dSS5UbrFO7-291" value="Close Modal Form" style="whiteSpace=wrap;html=1;absoluteArcSize=1;arcSize=14;strokeWidth=2;fontSize=11;fillColor=#e1d5e7;strokeColor=#9673a6;rounded=1;fontColor=#000000;" parent="WIyWlLk6GJQsqaUBKTNV-1" vertex="1">
                    <mxGeometry x="480" y="780" width="120" height="40" as="geometry"/>
                </mxCell>
                <mxCell id="PwTWBdAlO1dSS5UbrFO7-329" value="" style="edgeStyle=orthogonalEdgeStyle;orthogonalLoop=1;jettySize=auto;html=1;fontSize=11;fontColor=#000000;" parent="WIyWlLk6GJQsqaUBKTNV-1" source="PwTWBdAlO1dSS5UbrFO7-293" target="PwTWBdAlO1dSS5UbrFO7-328" edge="1">
                    <mxGeometry relative="1" as="geometry"/>
                </mxCell>
                <mxCell id="PwTWBdAlO1dSS5UbrFO7-293" value="Grab Task name, List ID from Modal form" style="whiteSpace=wrap;html=1;absoluteArcSize=1;arcSize=14;strokeWidth=2;fontSize=11;fillColor=#d5e8d4;strokeColor=#82b366;rounded=1;fontColor=#000000;" parent="WIyWlLk6GJQsqaUBKTNV-1" vertex="1">
                    <mxGeometry x="480" y="880" width="120" height="40" as="geometry"/>
                </mxCell>
                <mxCell id="PwTWBdAlO1dSS5UbrFO7-294" value="Cancel" style="text;html=1;align=center;verticalAlign=middle;resizable=0;points=[];autosize=1;strokeColor=none;fillColor=none;fontSize=11;rounded=1;" parent="WIyWlLk6GJQsqaUBKTNV-1" vertex="1">
                    <mxGeometry x="414" y="780" width="50" height="20" as="geometry"/>
                </mxCell>
                <mxCell id="PwTWBdAlO1dSS5UbrFO7-295" value="Add" style="text;html=1;align=center;verticalAlign=middle;resizable=0;points=[];autosize=1;strokeColor=none;fillColor=none;fontSize=11;rounded=1;" parent="WIyWlLk6GJQsqaUBKTNV-1" vertex="1">
                    <mxGeometry x="384" y="840" width="30" height="20" as="geometry"/>
                </mxCell>
                <mxCell id="PwTWBdAlO1dSS5UbrFO7-296" value="" style="edgeStyle=orthogonalEdgeStyle;orthogonalLoop=1;jettySize=auto;html=1;fontSize=11;fontColor=#000000;" parent="WIyWlLk6GJQsqaUBKTNV-1" source="PwTWBdAlO1dSS5UbrFO7-297" target="PwTWBdAlO1dSS5UbrFO7-298" edge="1">
                    <mxGeometry relative="1" as="geometry"/>
                </mxCell>
                <mxCell id="PwTWBdAlO1dSS5UbrFO7-297" value="Push Task to Specific List ( ID )&lt;span style=&quot;white-space: pre&quot;&gt;&#9;&lt;/span&gt;" style="whiteSpace=wrap;html=1;absoluteArcSize=1;arcSize=14;strokeWidth=2;fontSize=11;fillColor=#d5e8d4;strokeColor=#82b366;rounded=1;fontColor=#000000;" parent="WIyWlLk6GJQsqaUBKTNV-1" vertex="1">
                    <mxGeometry x="480" y="1040" width="120" height="40" as="geometry"/>
                </mxCell>
                <mxCell id="PwTWBdAlO1dSS5UbrFO7-307" value="" style="edgeStyle=orthogonalEdgeStyle;orthogonalLoop=1;jettySize=auto;html=1;fontSize=11;fontColor=#000000;" parent="WIyWlLk6GJQsqaUBKTNV-1" source="PwTWBdAlO1dSS5UbrFO7-298" target="PwTWBdAlO1dSS5UbrFO7-305" edge="1">
                    <mxGeometry relative="1" as="geometry"/>
                </mxCell>
                <mxCell id="PwTWBdAlO1dSS5UbrFO7-298" value="&lt;b&gt;fn()&lt;/b&gt; renderTaskList(id)" style="whiteSpace=wrap;html=1;absoluteArcSize=1;arcSize=14;strokeWidth=2;fontSize=11;fillColor=#d5e8d4;strokeColor=#82b366;rounded=1;fontColor=#000000;" parent="WIyWlLk6GJQsqaUBKTNV-1" vertex="1">
                    <mxGeometry x="320" y="1040" width="120" height="40" as="geometry"/>
                </mxCell>
                <mxCell id="PwTWBdAlO1dSS5UbrFO7-299" value="" style="edgeStyle=orthogonalEdgeStyle;orthogonalLoop=1;jettySize=auto;html=1;fontSize=11;fontColor=#000000;" parent="WIyWlLk6GJQsqaUBKTNV-1" source="PwTWBdAlO1dSS5UbrFO7-300" target="PwTWBdAlO1dSS5UbrFO7-293" edge="1">
                    <mxGeometry relative="1" as="geometry"/>
                </mxCell>
                <mxCell id="PwTWBdAlO1dSS5UbrFO7-300" value="Close Modal Form" style="whiteSpace=wrap;html=1;absoluteArcSize=1;arcSize=14;strokeWidth=2;fontSize=11;fillColor=#e1d5e7;strokeColor=#9673a6;rounded=1;fontColor=#000000;" parent="WIyWlLk6GJQsqaUBKTNV-1" vertex="1">
                    <mxGeometry x="320" y="880" width="120" height="40" as="geometry"/>
                </mxCell>
                <mxCell id="PwTWBdAlO1dSS5UbrFO7-311" value="" style="edgeStyle=orthogonalEdgeStyle;orthogonalLoop=1;jettySize=auto;html=1;fontSize=11;fontColor=#000000;" parent="WIyWlLk6GJQsqaUBKTNV-1" source="PwTWBdAlO1dSS5UbrFO7-303" target="PwTWBdAlO1dSS5UbrFO7-310" edge="1">
                    <mxGeometry relative="1" as="geometry"/>
                </mxCell>
                <mxCell id="PwTWBdAlO1dSS5UbrFO7-303" value="Render Data" style="whiteSpace=wrap;html=1;absoluteArcSize=1;arcSize=14;strokeWidth=2;fontSize=11;fillColor=#e1d5e7;strokeColor=#9673a6;rounded=1;fontColor=#000000;" parent="WIyWlLk6GJQsqaUBKTNV-1" vertex="1">
                    <mxGeometry x="160" y="960" width="120" height="40" as="geometry"/>
                </mxCell>
                <mxCell id="PwTWBdAlO1dSS5UbrFO7-306" value="" style="edgeStyle=orthogonalEdgeStyle;orthogonalLoop=1;jettySize=auto;html=1;fontSize=11;fontColor=#000000;" parent="WIyWlLk6GJQsqaUBKTNV-1" source="PwTWBdAlO1dSS5UbrFO7-305" target="PwTWBdAlO1dSS5UbrFO7-303" edge="1">
                    <mxGeometry relative="1" as="geometry"/>
                </mxCell>
                <mxCell id="PwTWBdAlO1dSS5UbrFO7-305" value="Fetch all Task Data &lt;br&gt;with List ID" style="whiteSpace=wrap;html=1;absoluteArcSize=1;arcSize=14;strokeWidth=2;fontSize=11;fillColor=#d5e8d4;strokeColor=#82b366;rounded=1;fontColor=#000000;" parent="WIyWlLk6GJQsqaUBKTNV-1" vertex="1">
                    <mxGeometry x="160" y="1040" width="120" height="40" as="geometry"/>
                </mxCell>
                <mxCell id="PwTWBdAlO1dSS5UbrFO7-308" value="done" style="strokeWidth=2;html=1;shape=mxgraph.flowchart.terminator;whiteSpace=wrap;fontSize=11;fillColor=#f8cecc;strokeColor=#b85450;rounded=1;fontColor=#000000;" parent="WIyWlLk6GJQsqaUBKTNV-1" vertex="1">
                    <mxGeometry x="500" y="160" width="80" height="40" as="geometry"/>
                </mxCell>
                <mxCell id="PwTWBdAlO1dSS5UbrFO7-310" value="done" style="strokeWidth=2;html=1;shape=mxgraph.flowchart.terminator;whiteSpace=wrap;fontSize=11;fillColor=#f8cecc;strokeColor=#b85450;rounded=1;fontColor=#000000;" parent="WIyWlLk6GJQsqaUBKTNV-1" vertex="1">
                    <mxGeometry x="180" y="880" width="80" height="40" as="geometry"/>
                </mxCell>
                <mxCell id="PwTWBdAlO1dSS5UbrFO7-312" value="" style="edgeStyle=orthogonalEdgeStyle;orthogonalLoop=1;jettySize=auto;html=1;fontSize=11;fontColor=#000000;" parent="WIyWlLk6GJQsqaUBKTNV-1" target="PwTWBdAlO1dSS5UbrFO7-313" edge="1">
                    <mxGeometry relative="1" as="geometry">
                        <mxPoint x="540" y="260" as="sourcePoint"/>
                    </mxGeometry>
                </mxCell>
                <mxCell id="PwTWBdAlO1dSS5UbrFO7-313" value="done" style="strokeWidth=2;html=1;shape=mxgraph.flowchart.terminator;whiteSpace=wrap;fontSize=11;fillColor=#f8cecc;strokeColor=#b85450;rounded=1;fontColor=#000000;" parent="WIyWlLk6GJQsqaUBKTNV-1" vertex="1">
                    <mxGeometry x="500" y="300" width="80" height="40" as="geometry"/>
                </mxCell>
                <mxCell id="PwTWBdAlO1dSS5UbrFO7-314" value="" style="edgeStyle=orthogonalEdgeStyle;orthogonalLoop=1;jettySize=auto;html=1;fontSize=11;fontColor=#000000;" parent="WIyWlLk6GJQsqaUBKTNV-1" target="PwTWBdAlO1dSS5UbrFO7-315" edge="1">
                    <mxGeometry relative="1" as="geometry">
                        <mxPoint x="540" y="580" as="sourcePoint"/>
                    </mxGeometry>
                </mxCell>
                <mxCell id="PwTWBdAlO1dSS5UbrFO7-315" value="done" style="strokeWidth=2;html=1;shape=mxgraph.flowchart.terminator;whiteSpace=wrap;fontSize=11;fillColor=#f8cecc;strokeColor=#b85450;rounded=1;fontColor=#000000;" parent="WIyWlLk6GJQsqaUBKTNV-1" vertex="1">
                    <mxGeometry x="500" y="620" width="80" height="40" as="geometry"/>
                </mxCell>
                <mxCell id="PwTWBdAlO1dSS5UbrFO7-317" value="done" style="strokeWidth=2;html=1;shape=mxgraph.flowchart.terminator;whiteSpace=wrap;fontSize=11;fillColor=#f8cecc;strokeColor=#b85450;rounded=1;fontColor=#000000;" parent="WIyWlLk6GJQsqaUBKTNV-1" vertex="1">
                    <mxGeometry x="640" y="780" width="80" height="40" as="geometry"/>
                </mxCell>
                <mxCell id="PwTWBdAlO1dSS5UbrFO7-330" value="" style="edgeStyle=orthogonalEdgeStyle;orthogonalLoop=1;jettySize=auto;html=1;fontSize=11;fontColor=#000000;" parent="WIyWlLk6GJQsqaUBKTNV-1" source="PwTWBdAlO1dSS5UbrFO7-328" target="PwTWBdAlO1dSS5UbrFO7-297" edge="1">
                    <mxGeometry relative="1" as="geometry"/>
                </mxCell>
                <mxCell id="PwTWBdAlO1dSS5UbrFO7-328" value="Reset Modal Form" style="whiteSpace=wrap;html=1;absoluteArcSize=1;arcSize=14;strokeWidth=2;fontSize=11;fillColor=#d5e8d4;strokeColor=#82b366;rounded=1;fontColor=#000000;" parent="WIyWlLk6GJQsqaUBKTNV-1" vertex="1">
                    <mxGeometry x="480" y="960" width="120" height="40" as="geometry"/>
                </mxCell>
                <mxCell id="PwTWBdAlO1dSS5UbrFO7-334" value="" style="edgeStyle=orthogonalEdgeStyle;orthogonalLoop=1;jettySize=auto;html=1;fontSize=11;fontColor=#000000;" parent="WIyWlLk6GJQsqaUBKTNV-1" source="PwTWBdAlO1dSS5UbrFO7-332" target="PwTWBdAlO1dSS5UbrFO7-333" edge="1">
                    <mxGeometry relative="1" as="geometry"/>
                </mxCell>
                <mxCell id="PwTWBdAlO1dSS5UbrFO7-332" value="&lt;b&gt;btn &lt;/b&gt;doneTask" style="strokeWidth=2;html=1;shape=mxgraph.flowchart.terminator;whiteSpace=wrap;fontSize=11;fillColor=#ffe6cc;strokeColor=#d79b00;rounded=1;fontColor=#000000;" parent="WIyWlLk6GJQsqaUBKTNV-1" vertex="1">
                    <mxGeometry x="40" y="1160" width="80" height="40" as="geometry"/>
                </mxCell>
                <mxCell id="PwTWBdAlO1dSS5UbrFO7-336" value="" style="edgeStyle=orthogonalEdgeStyle;orthogonalLoop=1;jettySize=auto;html=1;fontSize=11;fontColor=#000000;" parent="WIyWlLk6GJQsqaUBKTNV-1" source="PwTWBdAlO1dSS5UbrFO7-333" target="PwTWBdAlO1dSS5UbrFO7-335" edge="1">
                    <mxGeometry relative="1" as="geometry"/>
                </mxCell>
                <mxCell id="PwTWBdAlO1dSS5UbrFO7-333" value="Grab Task ID, List ID" style="whiteSpace=wrap;html=1;absoluteArcSize=1;arcSize=14;strokeWidth=2;fontSize=11;fillColor=#d5e8d4;strokeColor=#82b366;rounded=1;fontColor=#000000;" parent="WIyWlLk6GJQsqaUBKTNV-1" vertex="1">
                    <mxGeometry x="160" y="1160" width="120" height="40" as="geometry"/>
                </mxCell>
                <mxCell id="PwTWBdAlO1dSS5UbrFO7-337" value="" style="edgeStyle=orthogonalEdgeStyle;orthogonalLoop=1;jettySize=auto;html=1;fontSize=11;fontColor=#000000;" parent="WIyWlLk6GJQsqaUBKTNV-1" source="PwTWBdAlO1dSS5UbrFO7-335" target="PwTWBdAlO1dSS5UbrFO7-298" edge="1">
                    <mxGeometry relative="1" as="geometry"/>
                </mxCell>
                <mxCell id="PwTWBdAlO1dSS5UbrFO7-335" value="Change Task ( ID ) Status to &lt;u&gt;Done&lt;/u&gt;" style="whiteSpace=wrap;html=1;absoluteArcSize=1;arcSize=14;strokeWidth=2;fontSize=11;fillColor=#d5e8d4;strokeColor=#82b366;rounded=1;fontColor=#000000;" parent="WIyWlLk6GJQsqaUBKTNV-1" vertex="1">
                    <mxGeometry x="320" y="1160" width="120" height="40" as="geometry"/>
                </mxCell>
                <mxCell id="PwTWBdAlO1dSS5UbrFO7-338" value="&lt;b&gt;btn &lt;/b&gt;undoTask" style="strokeWidth=2;html=1;shape=mxgraph.flowchart.terminator;whiteSpace=wrap;fontSize=11;fillColor=#ffe6cc;strokeColor=#d79b00;rounded=1;fontColor=#000000;" parent="WIyWlLk6GJQsqaUBKTNV-1" vertex="1">
                    <mxGeometry x="40" y="1240" width="80" height="40" as="geometry"/>
                </mxCell>
            </root>
        </mxGraphModel>
    </diagram>
</mxfile>